PathFileType  4	(X/Y/Z) C:\Users\antoi\Documents\MyRepositories\mobilecap\ResultsAnalysis
DataRate	CameraRate	NumFrames	NumMarkers	Units	OrigDataRate	OrigDataStartFrame	OrigNumFrames
100.0	100.0	5	51	mm	100.0	337	1346
Frame#	Time	r_knee			r_shank_antsup			r_ankle			r_calc			r_5meta			r_toe			L_knee			L_shank_antsup			L_ankle			L_calc			L_5meta			L_toe			r_sh2			r_sh3			r_sh4			L_sh2			L_sh3			r_thigh1			r_thigh2			r_thigh3			r_thigh4			r_thigh5			L_thigh1			L_thigh2			L_thigh3			L_thigh4			r.ASIS			r.PSIS			L.ASIS			L.PSIS			C7			R_Shoulder			L_Shoulder			R_Sternum			L_Sternum			R_humerus			R_elbow_med			R_elbow_lat			R_forearm			R_wrist_radius			R_wrist_ulna			L_humerus			L_elbow_med			L_elbow_lat			L_forearm			L_wrist_radius			L_wrist_ulna			R_HJC			L_HJC			R_HJC_reg			L_HJC_reg			
		X1	Y1	Z1	X2	Y2	Z2	X3	Y3	Z3	X4	Y4	Z4	X5	Y5	Z5	X6	Y6	Z6	X7	Y7	Z7	X8	Y8	Z8	X9	Y9	Z9	X10	Y10	Z10	X11	Y11	Z11	X12	Y12	Z12	X13	Y13	Z13	X14	Y14	Z14	X15	Y15	Z15	X16	Y16	Z16	X17	Y17	Z17	X18	Y18	Z18	X19	Y19	Z19	X20	Y20	Z20	X21	Y21	Z21	X22	Y22	Z22	X23	Y23	Z23	X24	Y24	Z24	X25	Y25	Z25	X26	Y26	Z26	X27	Y27	Z27	X28	Y28	Z28	X29	Y29	Z29	X30	Y30	Z30	X31	Y31	Z31	X32	Y32	Z32	X33	Y33	Z33	X34	Y34	Z34	X35	Y35	Z35	X36	Y36	Z36	X37	Y37	Z37	X38	Y38	Z38	X39	Y39	Z39	X40	Y40	Z40	X41	Y41	Z41	X42	Y42	Z42	X43	Y43	Z43	X44	Y44	Z44	X45	Y45	Z45	X46	Y46	Z46	X47	Y47	Z47	X48	Y48	Z48	X49	Y49	Z49	X50	Y50	Z50	X51	Y51	Z51	

337	3.36000000	-131.02053	469.91218	-386.95718	-99.72396	370.07661	-386.01300	-276.35221	92.45913	-388.01599	-337.79998	56.83829	-437.20111	-161.51063	43.18611	-341.72211	-127.00553	74.74723	-393.09980	-131.51247	475.71668	-822.77981	-90.55680	380.45898	-816.54457	-263.57105	95.52390	-822.93795	-335.73836	50.66828	-771.85033	-162.66287	40.12783	-866.94298	-113.88120	67.92140	-815.29634	-145.48685	265.45876	-385.01058	-161.96300	394.83780	-351.55872	-213.81986	292.23191	-345.31433	-161.39590	422.49332	-852.97551	-209.37263	312.17206	-865.69658	-278.13078	705.18609	-397.94711	-196.10528	632.51087	-399.94965	-216.82273	575.79021	-365.34137	-353.71375	621.36735	-386.89636	-262.97781	547.40803	-385.98616	-245.10383	700.64015	-795.68617	-139.10416	608.52934	-795.01828	-314.83478	625.36166	-834.06728	-215.49478	536.44939	-824.81104	-276.88673	791.30820	-478.29105	-458.84345	891.87206	-554.95872	-281.75760	790.63483	-730.49105	-456.51742	891.92452	-652.12064	-235.44431	1288.90199	-597.58234	-154.93834	1238.22507	-440.00767	-143.77909	1229.67400	-734.87515	-139.95753	1180.89951	-574.68938	-135.72640	1184.36064	-613.89083	-69.20532	1163.08563	-392.55785	14.59232	966.13576	-408.00907	27.64547	988.22577	-343.32167	85.76028	1058.03692	-368.82412	176.08442	1146.68338	-476.94844	207.99140	1126.70732	-443.81241	-58.52351	1146.48070	-782.35868	20.74976	958.16903	-754.14792	40.36602	992.08129	-824.99052	86.91705	1048.93926	-801.45021	184.68764	1142.22092	-696.27629	218.18556	1115.08779	-725.81081	-385.10733	737.92464	-501.58107	-386.08462	737.80088	-691.14102	-374.84889	743.33133	-516.13538	-370.86468	743.42122	-682.57128	
338	3.37000000	-129.98926	469.52537	-386.72148	-98.70623	369.51640	-385.64955	-276.20359	92.60006	-387.90188	-337.67931	56.90310	-437.31511	-161.49051	43.12732	-341.47205	-126.93860	74.51100	-392.99076	-130.37588	475.04861	-823.28762	-89.43806	379.65021	-816.96978	-263.40332	95.47051	-822.93011	-335.70273	50.67391	-771.85792	-162.66356	40.06515	-866.97761	-113.78462	67.75778	-815.36119	-144.85668	264.83126	-384.98569	-161.04357	394.46849	-351.12324	-212.71279	292.13846	-345.32685	-160.10910	421.88191	-853.41804	-208.52102	311.09540	-864.94405	-280.60911	702.29888	-397.94894	-197.48481	630.78705	-399.76877	-217.22909	573.61930	-365.52079	-354.94291	617.48805	-386.74985	-263.05370	544.87378	-385.79683	-247.01812	698.29503	-795.64852	-139.53777	607.64602	-795.14675	-315.52757	622.30710	-834.74508	-214.82612	534.79077	-825.44168	-278.88062	785.55870	-478.51489	-460.06742	887.25530	-555.32241	-283.72777	785.01458	-730.96402	-457.92767	887.17992	-652.16874	-233.10251	1281.96334	-597.20400	-152.82740	1230.50156	-439.69025	-141.48505	1222.08844	-734.26294	-137.15848	1174.38720	-571.40987	-134.32554	1176.71623	-613.63484	-67.18520	1155.46693	-392.48951	16.83498	958.72515	-408.17743	30.09415	981.03308	-343.48343	86.74741	1051.81470	-369.21877	173.79901	1142.33309	-478.68398	206.54881	1123.20195	-445.83392	-56.48422	1138.95591	-781.65416	22.56740	950.25834	-753.73981	42.17197	984.57532	-824.26648	87.73664	1042.01381	-800.52437	182.73864	1137.13958	-694.80173	216.93737	1110.61133	-723.96444	-387.32863	732.80653	-501.88672	-388.37241	732.75206	-691.44630	-377.03108	738.36653	-516.17186	-373.35062	738.23602	-682.77860	
339	3.38000000	-129.06502	469.28271	-386.39504	-97.80300	369.00938	-385.11949	-276.11462	92.72186	-387.82534	-337.60471	56.94534	-437.37931	-161.53071	42.97600	-341.38318	-126.92712	74.39425	-392.89086	-129.36888	474.41850	-823.93027	-88.48340	379.03112	-817.48874	-263.25794	95.42994	-822.94647	-335.63223	50.59025	-771.76670	-162.68417	39.98627	-867.00267	-113.73581	67.70540	-815.50841	-144.26506	264.42390	-384.86191	-160.17256	394.08647	-350.64406	-211.50131	292.01555	-345.47398	-159.02660	421.44894	-853.97336	-207.87001	310.34339	-864.65074	-283.03812	699.34409	-398.13515	-198.92774	629.22017	-399.63881	-217.65399	572.09836	-364.63963	-356.06297	613.66345	-386.53118	-263.17593	542.45437	-385.39912	-248.92952	696.02520	-795.68822	-140.42729	607.23165	-795.51809	-316.22535	619.36283	-835.53055	-214.29580	533.20212	-826.29772	-280.78032	779.91405	-478.83054	-461.27511	882.69444	-555.68114	-285.65029	779.44511	-731.55253	-459.19135	882.51363	-652.28450	-230.79525	1275.02776	-596.87507	-150.70882	1222.87739	-439.52922	-139.31437	1214.55751	-733.66206	-136.17026	1166.08051	-571.92720	-132.69341	1169.11258	-613.15029	-65.29265	1147.94294	-392.41497	18.83893	951.33678	-408.27837	32.37368	973.81406	-343.56567	87.59652	1045.55626	-369.79126	171.48390	1137.74067	-480.29935	205.01766	1119.42592	-447.82189	-54.50136	1131.51411	-780.95101	23.91619	942.66292	-753.20187	43.90533	977.11756	-823.78144	88.40447	1035.12480	-799.76060	180.73512	1131.94909	-693.28927	215.66533	1105.89749	-722.31686	-389.45065	727.76901	-502.25193	-390.59812	727.77593	-691.81099	-379.22680	733.39208	-516.44100	-375.62906	733.07975	-683.22962	
340	3.39000000	-128.57343	468.86428	-385.89936	-97.00345	368.54209	-384.54268	-276.06776	92.73717	-387.79832	-337.59988	56.96629	-437.37803	-161.55154	42.87646	-341.32883	-126.92773	74.32443	-392.82652	-128.54075	473.80480	-824.66101	-87.60864	378.55320	-818.10813	-263.17383	95.39116	-822.96865	-335.59999	50.53840	-771.71560	-162.71588	39.90889	-867.01523	-113.73077	67.72348	-815.61843	-143.79995	264.12110	-384.48139	-159.37196	393.80481	-350.25093	-210.84520	291.84455	-345.44490	-158.11081	421.14818	-854.59977	-207.27944	310.12331	-865.12631	-285.40728	696.72575	-398.07070	-200.14574	627.68360	-399.67730	-218.15648	570.75696	-363.74084	-357.19848	609.99949	-386.26962	-263.37372	540.09217	-384.90712	-250.91487	693.81087	-795.79712	-141.44556	606.85949	-795.82845	-317.03119	616.37700	-836.14801	-214.01449	531.58546	-827.07689	-282.63059	774.44257	-478.99130	-462.45693	878.19745	-555.94935	-287.48393	773.88200	-732.13792	-460.30465	878.01955	-652.62759	-228.55057	1268.08643	-596.52740	-148.62878	1215.28882	-439.46075	-137.25289	1207.06564	-733.13645	-136.03450	1157.17656	-574.62516	-130.87560	1161.57618	-612.62779	-63.51500	1140.48796	-392.41450	20.67462	943.79430	-408.31101	34.46397	966.48531	-343.65607	88.36787	1039.27918	-370.59724	169.15367	1132.94840	-481.76777	203.33314	1115.41721	-449.63433	-52.58701	1124.12928	-780.36652	24.96718	935.22568	-752.76149	45.51108	969.68512	-823.36970	89.01218	1028.27055	-799.16461	178.75788	1126.56293	-691.85444	214.39362	1100.87087	-720.60948	-391.55320	722.89304	-502.56703	-392.72584	722.86645	-692.12595	-381.43331	728.26954	-516.74887	-377.71408	727.96232	-683.81496	
341	3.40000000	-128.41005	468.05060	-385.41677	-96.29380	368.05775	-384.02283	-276.04750	92.69687	-387.76849	-337.61250	56.97902	-437.36556	-161.51429	42.90807	-341.14392	-126.92434	74.26955	-392.74781	-127.96774	473.14896	-825.21169	-86.66323	378.12545	-819.01032	-263.14393	95.37083	-823.00648	-335.62265	50.55378	-771.76395	-162.74779	39.88258	-867.05270	-113.73441	67.73990	-815.66179	-143.50943	263.74206	-384.01734	-158.71504	393.60884	-349.94822	-210.68446	291.73933	-345.14095	-157.27498	420.69405	-854.97140	-206.67689	310.06206	-865.70885	-287.68152	694.27063	-397.84004	-201.62916	626.18641	-399.57245	-218.63493	568.71331	-364.24844	-358.42561	606.46268	-386.04163	-263.64047	537.70319	-384.55946	-253.01296	691.63456	-796.01442	-142.30685	606.04508	-795.93363	-318.04506	613.28909	-836.50697	-213.89760	529.97971	-827.75099	-284.45656	769.29686	-478.76801	-463.59699	873.74417	-556.11996	-289.25391	768.41569	-732.58499	-461.39932	873.60576	-652.96644	-226.37004	1261.18906	-596.15182	-146.63067	1207.74623	-439.29543	-135.23930	1199.66687	-732.71085	-135.04586	1149.28704	-575.75851	-129.21753	1154.15241	-612.25579	-61.84530	1133.13322	-392.37865	22.57477	936.16791	-408.38254	36.39455	959.16722	-343.75954	89.01735	1032.96680	-371.31800	166.85839	1128.01850	-483.08705	201.57262	1111.29087	-451.04191	-50.77953	1116.79758	-780.01447	26.25168	927.69473	-752.88266	47.01040	962.31086	-823.03657	89.65271	1021.34876	-798.47297	176.88813	1120.99702	-690.68884	213.19118	1095.65565	-718.74579	-393.58855	718.23457	-502.64217	-394.71522	718.00688	-692.20109	-383.54221	723.14114	-516.70639	-379.74143	722.90147	-684.21323	
